<svg xmlns="http://www.w3.org/2000/svg" width="826" height="188" fill="none" viewBox="0 0 826 188">
  <path fill="#fff" fill-rule="evenodd" d="M216.851 169.144c9.713 9.4 22.794 14.099 39.243 14.099 16.45 0 29.453-4.699 39.009-14.099 9.713-9.4 14.569-22.403 14.569-39.009V59.873c0-16.45-4.856-29.374-14.569-38.773C285.547 11.7 272.544 7 256.094 7c-16.449 0-29.53 4.7-39.243 14.1-9.556 9.4-14.335 22.402-14.335 39.008v70.027c0 16.606 4.779 29.609 14.335 39.009Zm57.338-18.094c-4.074 4.229-10.105 6.344-18.095 6.344-7.989 0-14.021-2.115-18.094-6.344-4.073-4.387-6.11-10.575-6.11-18.565V57.758c0-7.99 2.037-14.1 6.11-18.33 4.073-4.386 10.105-6.579 18.094-6.579 7.99 0 14.021 2.193 18.095 6.58 4.073 4.23 6.109 10.34 6.109 18.33v74.726c0 7.99-2.036 14.178-6.109 18.565Zm58.656 29.843V9.35h57.103c11.436 0 21.384 2.193 29.844 6.58 8.616 4.386 15.274 10.574 19.974 18.564 4.7 7.833 7.049 17.076 7.049 27.729 0 10.653-2.349 19.974-7.049 27.964-4.7 7.833-11.358 13.943-19.974 18.329-8.46 4.387-18.408 6.58-29.844 6.58h-27.729v65.797h-29.374Zm29.374-91.646h27.729c8.303 0 14.882-2.507 19.739-7.52 4.856-5.013 7.285-11.514 7.285-19.504 0-7.99-2.429-14.491-7.285-19.504-4.857-5.014-11.436-7.52-19.739-7.52h-27.729v54.048Zm102.834 65.092v26.554h98.697v-26.554h-34.544V35.904h34.544V9.35h-98.697v26.554h34.544v118.435h-34.544Zm126.099 26.554V9.35H645.2c11.436 0 21.306 2.115 29.609 6.345 8.46 4.23 15.039 10.183 19.739 17.859 4.7 7.52 7.05 16.45 7.05 26.789 0 11.436-2.82 21.462-8.46 30.079-5.639 8.46-13.238 14.491-22.794 18.094l33.604 72.377h-32.194l-30.079-68.147h-21.384v68.147h-29.139Zm29.139-93.996H645.2c8.303 0 14.805-2.272 19.504-6.815 4.7-4.543 7.05-10.81 7.05-18.8 0-7.989-2.428-14.334-7.285-19.033-4.699-4.7-11.123-7.05-19.269-7.05h-24.909v51.698Zm102.599 93.996V9.35h102.926v25.849h-74.022v44.648h65.797v24.909h-65.797v50.288h74.022v25.849H722.89Z" clip-rule="evenodd"/>
  <g filter="url(#a)">
    <g clip-path="url(#b)" filter="url(#c)">
      <ellipse cx="91.767" cy="95.88" fill="#fff" rx="87.767" ry="89.251"/>
    </g>
  </g>
  <g filter="url(#d)">
    <g clip-path="url(#e)" filter="url(#f)">
      <ellipse cx="91.767" cy="95.88" fill="#fff" rx="87.767" ry="89.251"/>
    </g>
  </g>
  <g filter="url(#g)">
    <g clip-path="url(#h)" filter="url(#i)">
      <ellipse cx="91.767" cy="95.88" fill="#fff" rx="87.767" ry="89.251"/>
    </g>
  </g>
  <g filter="url(#j)">
    <g clip-path="url(#k)" filter="url(#l)">
      <ellipse cx="91.767" cy="95.88" fill="#fff" rx="87.767" ry="89.251"/>
    </g>
  </g>
  <defs>
    <filter id="a" width="86.295" height="86.295" x=".289" y="4.402" color-interpolation-filters="sRGB" filterUnits="userSpaceOnUse">
      <feFlood flood-opacity="0" result="BackgroundImageFix"/>
      <feBlend in="SourceGraphic" in2="BackgroundImageFix" result="shape"/>
      <feGaussianBlur result="effect1_foregroundBlur_239_181" stdDeviation="1.856"/>
    </filter>
    <filter id="c" width="249.754" height="252.723" x="-33.111" y="-30.482" color-interpolation-filters="sRGB" filterUnits="userSpaceOnUse">
      <feFlood flood-opacity="0" result="BackgroundImageFix"/>
      <feBlend in="SourceGraphic" in2="BackgroundImageFix" result="shape"/>
      <feGaussianBlur result="effect1_foregroundBlur_239_181" stdDeviation="18.555"/>
    </filter>
    <filter id="d" width="86.295" height="86.295" x=".289" y="100.802" color-interpolation-filters="sRGB" filterUnits="userSpaceOnUse">
      <feFlood flood-opacity="0" result="BackgroundImageFix"/>
      <feBlend in="SourceGraphic" in2="BackgroundImageFix" result="shape"/>
      <feGaussianBlur result="effect1_foregroundBlur_239_181" stdDeviation="1.856"/>
    </filter>
    <filter id="f" width="249.754" height="252.723" x="-33.111" y="-30.482" color-interpolation-filters="sRGB" filterUnits="userSpaceOnUse">
      <feFlood flood-opacity="0" result="BackgroundImageFix"/>
      <feBlend in="SourceGraphic" in2="BackgroundImageFix" result="shape"/>
      <feGaussianBlur result="effect1_foregroundBlur_239_181" stdDeviation="18.555"/>
    </filter>
    <filter id="g" width="93.717" height="93.717" x="92.978" y=".691" color-interpolation-filters="sRGB" filterUnits="userSpaceOnUse">
      <feFlood flood-opacity="0" result="BackgroundImageFix"/>
      <feBlend in="SourceGraphic" in2="BackgroundImageFix" result="shape"/>
      <feGaussianBlur result="effect1_foregroundBlur_239_181" stdDeviation="3.711"/>
    </filter>
    <filter id="i" width="249.754" height="252.723" x="-33.111" y="-30.482" color-interpolation-filters="sRGB" filterUnits="userSpaceOnUse">
      <feFlood flood-opacity="0" result="BackgroundImageFix"/>
      <feBlend in="SourceGraphic" in2="BackgroundImageFix" result="shape"/>
      <feGaussianBlur result="effect1_foregroundBlur_239_181" stdDeviation="18.555"/>
    </filter>
    <filter id="j" width="86.295" height="86.295" x="96.689" y="100.802" color-interpolation-filters="sRGB" filterUnits="userSpaceOnUse">
      <feFlood flood-opacity="0" result="BackgroundImageFix"/>
      <feBlend in="SourceGraphic" in2="BackgroundImageFix" result="shape"/>
      <feGaussianBlur result="effect1_foregroundBlur_239_181" stdDeviation="1.856"/>
    </filter>
    <filter id="l" width="249.754" height="252.723" x="-33.111" y="-30.482" color-interpolation-filters="sRGB" filterUnits="userSpaceOnUse">
      <feFlood flood-opacity="0" result="BackgroundImageFix"/>
      <feBlend in="SourceGraphic" in2="BackgroundImageFix" result="shape"/>
      <feGaussianBlur result="effect1_foregroundBlur_239_181" stdDeviation="18.555"/>
    </filter>
    <clipPath id="b">
      <rect width="78.873" height="78.873" x="4" y="8.113" fill="#fff" rx="39.436"/>
    </clipPath>
    <clipPath id="e">
      <rect width="78.873" height="78.873" x="4" y="104.513" fill="#fff" rx="39.436"/>
    </clipPath>
    <clipPath id="h">
      <rect width="78.873" height="78.873" x="100.4" y="8.113" fill="#fff" rx="39.436"/>
    </clipPath>
    <clipPath id="k">
      <rect width="78.873" height="78.873" x="100.4" y="104.513" fill="#fff" rx="39.436"/>
    </clipPath>
  </defs>
</svg>
