<svg xmlns="http://www.w3.org/2000/svg" width="215" height="128" fill="none" viewBox="0 0 215 128">
  <path fill="#FFB163" d="M206.58 127.397a1 1 0 0 0 1.413-.042l6.173-6.549a.999.999 0 1 0-1.455-1.372l-5.487 5.822-5.822-5.488a1 1 0 0 0-1.371 1.456l6.549 6.173ZM.722.505c.71 2.832 1.489 5.557 2.332 8.179l1.904-.613A127.938 127.938 0 0 1 2.662.018L.722.505ZM9.37 24.222c2.658 5.27 5.649 9.997 8.929 14.24l1.582-1.224c-3.2-4.138-6.123-8.756-8.726-13.916l-1.785.9Zm20.581 26.424c4.353 3.682 9.005 6.822 13.888 9.511l.965-1.752c-4.776-2.63-9.318-5.696-13.561-9.286l-1.292 1.527ZM59.2 66.988c5.243 1.859 10.645 3.361 16.142 4.596l.438-1.952c-5.432-1.22-10.757-2.701-15.911-4.529l-.669 1.885Zm32.634 7.553c5.528.779 11.089 1.382 16.618 1.894l.184-1.992c-5.509-.51-11.036-1.11-16.523-1.882l-.279 1.98Zm33.253 3.25c5.658.429 11.21.847 16.598 1.35l.186-1.99c-5.408-.506-10.979-.926-16.633-1.354l-.151 1.994Zm33.094 3.348c5.752.914 11.165 2.074 16.136 3.621l.595-1.91c-5.09-1.584-10.602-2.762-16.417-3.686l-.314 1.975Zm30.949 10.424c4.527 3.035 8.286 6.82 11.122 11.595l1.72-1.021c-3.003-5.056-6.98-9.052-11.729-12.235l-1.113 1.661Zm16.403 26.959c.4 2.545.648 5.266.734 8.177l1.999-.059a67.006 67.006 0 0 0-.757-8.428l-1.976.31Zm1.048 8.875a1 1 0 0 0 1.413-.042l6.173-6.549a.999.999 0 1 0-1.455-1.372l-5.487 5.822-5.822-5.488a1 1 0 0 0-1.371 1.456l6.549 6.173ZM.722.505c.71 2.832 1.489 5.557 2.332 8.179l1.904-.613A127.938 127.938 0 0 1 2.662.018L.722.505ZM9.37 24.222c2.658 5.27 5.649 9.997 8.929 14.24l1.582-1.224c-3.2-4.138-6.123-8.756-8.726-13.916l-1.785.9Zm20.581 26.424c4.353 3.682 9.005 6.822 13.888 9.511l.965-1.752c-4.776-2.63-9.318-5.696-13.561-9.286l-1.292 1.527ZM59.2 66.988c5.243 1.859 10.645 3.361 16.142 4.596l.438-1.952c-5.432-1.22-10.757-2.701-15.911-4.529l-.669 1.885Zm32.634 7.553c5.528.779 11.089 1.382 16.618 1.894l.184-1.992c-5.509-.51-11.036-1.11-16.523-1.882l-.279 1.98Zm33.253 3.25c5.658.429 11.21.847 16.598 1.35l.186-1.99c-5.408-.506-10.979-.926-16.633-1.354l-.151 1.994Zm33.094 3.348c5.752.914 11.165 2.074 16.136 3.621l.595-1.91c-5.09-1.584-10.602-2.762-16.417-3.686l-.314 1.975Zm30.949 10.424c4.527 3.035 8.286 6.82 11.122 11.595l1.72-1.021c-3.003-5.056-6.98-9.052-11.729-12.235l-1.113 1.661Zm16.403 26.959c.4 2.545.648 5.266.734 8.177l1.999-.059a67.006 67.006 0 0 0-.757-8.428l-1.976.31Z"/>
</svg>
