<svg xmlns="http://www.w3.org/2000/svg" fill="none" viewBox="0 0 334 85"><path fill="#FFB163" d="M326.64 81.943a1 1 0 0 0 1.397-.218l5.309-7.268a1 1 0 0 0-1.615-1.18l-4.719 6.46-6.46-4.718a1 1 0 0 0-1.18 1.615l7.268 5.309ZM.333.729c.935 2.673 1.89 5.269 2.864 7.79l1.866-.721c-.966-2.5-1.914-5.076-2.843-7.73L.333.73Zm9.079 22.336c2.38 5.033 4.852 9.7 7.411 14.019l1.721-1.02c-2.526-4.262-4.969-8.873-7.324-13.854l-1.808.855Zm16.39 27.332c3.456 4.478 7.038 8.444 10.736 11.934l1.373-1.454c-3.617-3.414-7.13-7.3-10.525-11.702l-1.584 1.222ZM49.26 72.252a75.043 75.043 0 0 0 14.437 7.087l.683-1.88a73.041 73.041 0 0 1-14.053-6.898l-1.067 1.691Zm30.022 10.97c5.26.761 10.611 1.026 16.032.87l-.057-1.998c-5.318.152-10.555-.109-15.689-.85l-.286 1.978Zm31.963-.695c5.179-.84 10.4-1.986 15.645-3.376l-.512-1.933c-5.191 1.375-10.348 2.506-15.454 3.335l.321 1.974Zm30.944-8.046a321.504 321.504 0 0 0 14.973-5.571l-.741-1.858a319.748 319.748 0 0 1-14.88 5.536l.648 1.893Zm29.676-11.74a869.826 869.826 0 0 0 14.535-6.538l-.836-1.817a867.686 867.686 0 0 1-14.5 6.523l.801 1.832Zm28.989-13.239c4.881-2.269 9.705-4.503 14.46-6.651l-.824-1.823a1498.782 1498.782 0 0 0-14.479 6.66l.843 1.814ZM229.865 36.5c5.03-2.096 9.951-4.023 14.744-5.711l-.665-1.887c-4.837 1.705-9.794 3.645-14.848 5.752l.769 1.846Zm29.953-10.303c5.384-1.306 10.538-2.16 15.431-2.452l-.118-1.996c-5.039.3-10.314 1.177-15.785 2.504l.472 1.944Zm30.947-1.124c4.954 1.305 9.513 3.546 13.631 6.907l1.264-1.549c-4.349-3.551-9.169-5.917-14.386-7.292l-.509 1.934Zm23.596 18.77c2.384 4 4.52 8.69 6.38 14.142l1.893-.646c-1.898-5.562-4.088-10.38-6.555-14.52l-1.718 1.024Zm10.427 29.337a173.437 173.437 0 0 1 1.453 8.109l1.976-.308a175.682 175.682 0 0 0-1.469-8.201l-1.96.4Zm1.852 8.763a1 1 0 0 0 1.397-.218l5.309-7.268a1 1 0 0 0-1.615-1.18l-4.719 6.46-6.46-4.718a1 1 0 0 0-1.18 1.615l7.268 5.309ZM.333.729c.935 2.673 1.89 5.269 2.864 7.79l1.866-.721c-.966-2.5-1.914-5.076-2.843-7.73L.333.73Zm9.079 22.336c2.38 5.033 4.852 9.7 7.411 14.019l1.721-1.02c-2.526-4.262-4.969-8.873-7.324-13.854l-1.808.855Zm16.39 27.332c3.456 4.478 7.038 8.444 10.736 11.934l1.373-1.454c-3.617-3.414-7.13-7.3-10.525-11.702l-1.584 1.222ZM49.26 72.252a75.043 75.043 0 0 0 14.437 7.087l.683-1.88a73.041 73.041 0 0 1-14.053-6.898l-1.067 1.691Zm30.022 10.97c5.26.761 10.611 1.026 16.032.87l-.057-1.998c-5.318.152-10.555-.109-15.689-.85l-.286 1.978Zm31.963-.695c5.179-.84 10.4-1.986 15.645-3.376l-.512-1.933c-5.191 1.375-10.348 2.506-15.454 3.335l.321 1.974Zm30.944-8.046a321.504 321.504 0 0 0 14.973-5.571l-.741-1.858a319.748 319.748 0 0 1-14.88 5.536l.648 1.893Zm29.676-11.74a869.826 869.826 0 0 0 14.535-6.538l-.836-1.817a867.686 867.686 0 0 1-14.5 6.523l.801 1.832Zm28.989-13.239c4.881-2.269 9.705-4.503 14.46-6.651l-.824-1.823a1498.782 1498.782 0 0 0-14.479 6.66l.843 1.814ZM229.865 36.5c5.03-2.096 9.951-4.023 14.744-5.711l-.665-1.887c-4.837 1.705-9.794 3.645-14.848 5.752l.769 1.846Zm29.953-10.303c5.384-1.306 10.538-2.16 15.431-2.452l-.118-1.996c-5.039.3-10.314 1.177-15.785 2.504l.472 1.944Zm30.947-1.124c4.954 1.305 9.513 3.546 13.631 6.907l1.264-1.549c-4.349-3.551-9.169-5.917-14.386-7.292l-.509 1.934Zm23.596 18.77c2.384 4 4.52 8.69 6.38 14.142l1.893-.646c-1.898-5.562-4.088-10.38-6.555-14.52l-1.718 1.024Zm10.427 29.337a173.437 173.437 0 0 1 1.453 8.109l1.976-.308a175.682 175.682 0 0 0-1.469-8.201l-1.96.4Z"/></svg>