<svg xmlns="http://www.w3.org/2000/svg" fill="none" viewBox="0 0 53 53"><circle cx="26.5" cy="26.5" r="26" stroke="#FFB163"/><path fill="#FFB163" d="M37.34 31.902c.469.235.703.528.703.88.02.35-.088.683-.322.995a2.045 2.045 0 0 1-.88.674c-.35.156-.673.147-.966-.03a.446.446 0 0 1-.264.323c-.117.04-.195.127-.234.264a96.704 96.704 0 0 0-5.8 1.084c-1.974.43-3.946.752-5.919.967-1.523-.059-2.793-.284-3.808-.674a3.391 3.391 0 0 1-.938-1.319 5.916 5.916 0 0 1-.351-1.67 8.16 8.16 0 0 1 .058-1.699 6.728 6.728 0 0 1 .352-1.465 58.138 58.138 0 0 1 3.164-3.691 20.427 20.427 0 0 1 3.78-3.164c.41-.508.888-.938 1.435-1.29a10.231 10.231 0 0 0 1.494-1.23 5.32 5.32 0 0 0-1.846-.322c-.645 0-1.28.059-1.904.176-.625.098-1.211.225-1.758.38-.547.157-1.025.274-1.436.352-.312-.156-.683-.244-1.113-.263-.41-.02-.82-.098-1.23-.235a1.58 1.58 0 0 1-.498-.761 5.248 5.248 0 0 1-.147-.967c-.02-.332-.03-.645-.03-.938 0-.312-.038-.566-.116-.761.156-.254.293-.508.41-.762.137-.254.293-.488.469-.703a23.961 23.961 0 0 1 3.046-.616 19.416 19.416 0 0 1 3.37-.234 13.99 13.99 0 0 1 3.28.44 7.724 7.724 0 0 1 2.813 1.289c.098.547.303.986.615 1.318.313.313.694.557 1.143.732.215.391.4.791.557 1.202.156.39.263.81.322 1.26-.39 1.035-.947 1.913-1.67 2.636a27.719 27.719 0 0 1-2.139 1.934 6.79 6.79 0 0 1-1.26.85c-.449.234-.84.507-1.171.82a.55.55 0 0 0-.147.322.394.394 0 0 1-.146.264 7.502 7.502 0 0 1-1.172.85c-.43.233-.82.507-1.172.82-.254.214-.469.449-.645.703a2.336 2.336 0 0 1-.644.673 2.72 2.72 0 0 0 1.025.147c.352-.02.704-.059 1.055-.117l1.113-.176c.391-.059.791-.078 1.201-.059a14.462 14.462 0 0 1 1.876-.498 7.29 7.29 0 0 1 2.05-.175 8.858 8.858 0 0 1 1.67-.498 4.71 4.71 0 0 1 1.553-.088c.254.097.44.273.557.527.136.254.341.43.615.527-.059.215-.078.371-.059.469.04.098.059.273.059.527Z"/></svg>