<svg xmlns="http://www.w3.org/2000/svg" fill="none" viewBox="0 0 53 53"><circle cx="26.5" cy="26.5" r="26" stroke="#FFB163"/><path fill="#FFB163" d="M26.91 15.79c.215.429.488.78.82 1.054.352.254.694.517 1.026.79.41.762.664 1.612.762 2.55.097.937.205 1.962.322 3.076 0 .898-.059 1.748-.176 2.549a23.129 23.129 0 0 1-.469 2.314c-.175.742-.38 1.484-.615 2.227a49.118 49.118 0 0 0-.674 2.343c-.273.293-.488.713-.644 1.26a3.219 3.219 0 0 0-.03 1.553c-.253.312-.507.615-.761.908a6.774 6.774 0 0 1-.85.82.743.743 0 0 0-.469-.205h-.556l-.557.059c-.156.039-.273.049-.352.03a2.89 2.89 0 0 0-.41-.499 6.112 6.112 0 0 1-.44-.556 5.174 5.174 0 0 1-.292-.557.693.693 0 0 1 .058-.557c0-.215-.117-.322-.351-.322.059-.899.205-1.777.44-2.637.234-.879.497-1.728.79-2.549.293-.84.577-1.67.85-2.49.293-.82.508-1.63.645-2.431.156-.801.195-1.602.117-2.403-.059-.8-.284-1.611-.674-2.431 0-.274-.01-.498-.03-.674 0-.196-.01-.362-.029-.498 0-.157-.01-.303-.029-.44a2.106 2.106 0 0 0-.117-.44c.098-.273.166-.527.205-.761.058-.234.058-.45 0-.645a.697.697 0 0 1 .117-.322c.059-.097.127-.185.205-.263.078-.098.147-.186.205-.264a.713.713 0 0 0 .147-.352h.644c.215.176.4.342.557.498.156.137.361.225.615.264Z"/></svg>