<svg xmlns="http://www.w3.org/2000/svg" width="53" height="53" fill="none" viewBox="0 0 53 53">
  <circle cx="26.5" cy="26.5" r="26" stroke="#FFB163"/>
  <path fill="#FFB163" d="M19.132 17.078c1.074-.215 2.138-.43 3.193-.644 1.055-.235 2.11-.43 3.164-.586a35.873 35.873 0 0 1 3.281-.323 23.87 23.87 0 0 1 3.516.088 9.758 9.758 0 0 1 1.29 1.67 23.91 23.91 0 0 1 1.054 1.846c-.04.137-.069.273-.088.41 0 .137-.02.283-.059.44a2.55 2.55 0 0 1-.41.703c-.156.195-.283.43-.38.703a17.04 17.04 0 0 0-1.407.879c-.43.312-.86.634-1.289.966-.352.157-.723.303-1.113.44a1.44 1.44 0 0 0-.85.703c.645.273 1.211.605 1.7.996.488.39.917.83 1.288 1.319.372.488.694 1.015.967 1.582.274.566.518 1.152.733 1.757-.04.293-.088.596-.147.909-.058.312-.058.576 0 .79-.137.41-.322.743-.556.997-.215.234-.43.556-.645.967-.684.292-1.24.703-1.67 1.23-.195 0-.293-.04-.293-.117a9.664 9.664 0 0 1-2.11 1.054c-.8.274-1.66.489-2.577.645-.918.156-1.885.244-2.9.264a26.46 26.46 0 0 1-3.048-.118 1.019 1.019 0 0 1-.205-.205c-.058-.078-.176-.107-.351-.087a1.462 1.462 0 0 0-.322-.499 2.29 2.29 0 0 1-.293-.527c.195-.312.322-.674.38-1.084.079-.41.157-.8.235-1.172.097-.39.224-.732.38-1.025.157-.313.42-.537.792-.674.156-.02.244.03.263.146.02.118.078.196.176.235.762 0 1.524-.01 2.285-.03.762-.038 1.485-.107 2.168-.204a10.848 10.848 0 0 0 1.905-.499 4.526 4.526 0 0 0 1.552-.908 6.007 6.007 0 0 0-2.05-1.054 287.88 287.88 0 0 0-2.286-.733 8.793 8.793 0 0 1-1.933-.879c-.567-.37-.938-.908-1.114-1.611.098-.45.166-.85.206-1.201.038-.352.087-.674.146-.967.059-.293.146-.567.264-.82.136-.274.351-.538.644-.791-.098-.059-.244-.069-.44-.03-.175.02-.37.069-.585.147-.215.058-.43.137-.645.234-.195.078-.361.147-.498.205a6.753 6.753 0 0 0-1.26-.175 2.645 2.645 0 0 1-1.142-.381c-.04-.215-.088-.45-.147-.704a5.922 5.922 0 0 1-.117-.82c-.02-.273 0-.547.059-.82.058-.274.195-.527.41-.762a3.095 3.095 0 0 1-.088-.41.934.934 0 0 0-.117-.352c.215-.175.44-.351.674-.527.254-.176.39-.371.41-.586Z"/>
</svg>
