<svg xmlns="http://www.w3.org/2000/svg" width="53" height="53" fill="none" viewBox="0 0 53 53">
  <circle cx="26.5" cy="26.5" r="26" stroke="#FFB163"/>
  <path fill="#FFB163" d="M33.912 22.38c.117.333.235.626.352.88.117.254.341.478.673.674-.078.449-.097.82-.058 1.113.039.293-.01.654-.147 1.084a3.064 3.064 0 0 1-.996.703c-.37.176-.761.332-1.171.469-.391.117-.792.244-1.202.38-.39.137-.752.323-1.084.557a46.318 46.318 0 0 1-.82 2.315 22.934 22.934 0 0 0-.732 2.52.354.354 0 0 0 .205.204c.097.04.175.098.234.176-.098.273-.107.498-.03.674.079.156.186.303.323.44l.41.41c.156.136.264.293.322.468a1.78 1.78 0 0 0-.146.528l-.059.527c0 .176-.029.351-.088.527a1.337 1.337 0 0 1-.263.528c-.39.156-.791.234-1.201.234-.391 0-.752.049-1.084.147a2.078 2.078 0 0 1-1.055-.616 3.737 3.737 0 0 1-.674-1.025 6.71 6.71 0 0 1-.41-1.201c-.098-.41-.176-.772-.234-1.084.117-.215.087-.313-.088-.293a1.216 1.216 0 0 1 .029-.791c.098-.254.117-.45.059-.586.039-.488.117-.996.234-1.524.117-.547.254-1.162.41-1.845a8.45 8.45 0 0 0-.85-.147 6.771 6.771 0 0 0-.878-.117c-.274-.04-.528-.068-.762-.088-.235-.02-.41-.03-.527-.03a2.278 2.278 0 0 1-.762-.35 5.298 5.298 0 0 1-.586-.557l-.527-.645a7.603 7.603 0 0 0-.498-.615 19.722 19.722 0 0 0-.294-2.08c-.136-.703-.263-1.387-.38-2.051a25.382 25.382 0 0 1-.264-1.875c-.059-.586-.03-1.113.088-1.582.195-.293.39-.576.586-.85.195-.273.43-.508.703-.703.215.059.38.166.498.322a2.1 2.1 0 0 1 .352.47l.351.468c.137.137.313.234.527.293.079.371.196.723.352 1.055.176.312.332.634.469.966.156.332.283.684.38 1.055.118.352.176.752.176 1.201.196.293.4.479.616.557.234.058.478.078.732.058l.762-.058c.273-.02.547.01.82.088.059-.098.156-.147.293-.147a.932.932 0 0 0 .352-.117c.117-.039.175-.137.175-.293.02-.156.108-.244.264-.264a3.998 3.998 0 0 1 0-.966c.059-.332.107-.645.146-.938a4.33 4.33 0 0 0 .088-.85c.02-.273-.02-.546-.117-.82.196-.37.313-.81.352-1.318.058-.527.117-1.035.176-1.524.078-.488.205-.927.38-1.318.196-.41.528-.693.997-.85 1.171.997 1.992 2.335 2.46 4.014-.195.82-.312 1.582-.351 2.285-.02.703-.02 1.407 0 2.11a8.717 8.717 0 0 1 1.025-.235c.371-.058.694-.107.967-.146Z"/>
</svg>
