<svg xmlns="http://www.w3.org/2000/svg" width="85" height="14" fill="currentColor" viewBox="0 0 85 14"><path fill="currentColor" d="M79.148 2.103c1.585-.07 2.7-.046 3.347.07.751.107 1.245.289 1.479.545.337.212.466.477.388.795a2.863 2.863 0 0 0-.077.94c-2.58.813-6.174 1.542-10.784 2.188-4.612.61-9.439 1.188-14.481 1.733-5.045.51-9.935.973-14.67 1.387-4.736.415-8.467.793-11.194 1.135-5.665.703-10.067 1.295-13.206 1.777-3.036.439-5.126.794-6.268 1.067-2.003.14-3.592.159-4.767.054-1.176-.104-2.144-.261-2.905-.471a9.671 9.671 0 0 1-1.984-.863c-.559-.332-1.225-.67-1.997-1.018.396-.311.467-.715.212-1.21-.256-.497-.922-.836-1.998-1.018.839-.108 1.454-.352 1.845-.732.388-.414.364-.688-.072-.823a85.555 85.555 0 0 1 5.344-.726c1.993-.244 3.936-.466 5.827-.666s3.675-.408 5.353-.624c1.78-.259 3.292-.547 4.537-.863 5.259-.495 10.674-1.02 16.245-1.577 5.676-.566 10.985-1.1 15.924-1.6 1.804.015 3.918-.067 6.341-.244 2.42-.212 4.793-.368 7.117-.467 2.321-.134 4.442-.13 6.363.013 1.922.143 3.282.542 4.082 1.198Z"/></svg>