<svg xmlns="http://www.w3.org/2000/svg" width="740" height="573" fill="none" viewBox="0 0 740 573"><path fill="#EC9D74" d="m123.82 497.194-2.911 14.673-2.988 5.318-15.17-4.164 4.423-2.143a5.59 5.59 0 0 0 2.228-2.658c1.189-3.033 2.896-12.205 2.896-12.205l11.522 1.179Z"/><path fill="#064941" d="M120.836 511.644c1.717.12 1.439 10.334.75 11.077-.688.743-30.344-1.256-32.19-1.885-1.847-.629 1.089-5.108 5.02-6.817 3.932-1.708 11.894-3.508 12.76-3.14.867.367 3.379 1.805 4.87 2.189 3.408.878 7.935-1.484 8.79-1.424Z"/><path fill="#EC9D74" d="m161.098 492.155 2.912 14.673 2.988 5.318 15.17-4.165-4.425-2.145a5.585 5.585 0 0 1-2.228-2.658c-1.189-3.032-2.897-12.205-2.897-12.205l-11.52 1.182Z"/><path fill="#064941" d="M164.076 506.603c-1.718.12-1.439 10.335-.751 11.077.688.743 30.344-1.256 32.191-1.885 1.847-.628-1.089-5.108-5.021-6.819-3.931-1.712-11.893-3.508-12.759-3.141-.867.367-3.379 1.806-4.871 2.19-3.408.879-7.934-1.481-8.789-1.422Z"/><g filter="url(#a)"><path fill="url(#b)" d="M364.211 114.264c-56.832 25.709-126.775-11.879-184.643 11.185-44.002 17.538-76.761 59.521-90.184 106.562-13.423 47.041-8.89 98.381 6.616 144.815 8.445 25.294 20.236 49.702 37.216 69.833 24.245 28.751 58.068 47.461 93.385 57.928 35.317 10.467 72.289 13.182 108.971 13.968 55.712 1.2 112.216-2.06 165.272-19.625 53.057-17.566 102.784-50.627 133.014-99.28 19.212-30.926 29.907-66.898 35.858-103.24 7.223-44.114 7.439-91.013-9.971-132.006-11.87-27.947-31.486-51.9-54.436-70.966-34.304-28.505-78.181-46.808-121.746-42.019-44.491 4.885-76.729 43.566-119.352 62.845Z" shape-rendering="crispEdges"/></g><path fill="#EC9D74" d="m203.884 298.782 21.431 4.053s-.827 8.275-.745 8.937c.082.661-9.516 1.82-9.516 1.82l-16.879-6.537 5.709-8.273Z"/><path fill="#1F161C" d="M534.661 271.578c-2.922-4.497-1.518-10.945 2.377-14.634 3.895-3.69 9.678-4.875 14.994-4.169 5.316.706 10.261 3.09 14.905 5.774s9.113 5.709 14.015 7.883c8.372 3.719 17.623 4.81 26.6 6.638 6.164 1.255 12.84 3.29 16.173 8.624 3.334 5.334 2.1 12.638-1.683 17.662-3.783 5.024-9.635 8.089-15.599 10.088-8.166 2.739-17.063 3.761-25.445 1.771-5.046-1.199-9.773-3.441-14.458-5.674-2.361-1.126-4.755-2.267-6.745-3.962-6.198-5.276-7.232-14.608-12.615-20.71-3.295-3.729-9.424-4.529-12.519-9.291Z"/><path fill="#000" d="M622.039 299.359c3.148-4.181 4.519-9.938 2.972-14.829-8.397-1.347-17.244.738-25.807 1.973-11.881 1.713-24.187 1.689-35.683-1.763-11.495-3.452-22.152-10.568-28.4-20.819a18.729 18.729 0 0 0-1.711-.492 10.621 10.621 0 0 0 1.252 8.149c3.095 4.763 9.224 5.562 12.513 9.292 5.381 6.103 6.417 15.435 12.615 20.709 1.992 1.695 4.383 2.838 6.745 3.962 4.685 2.23 9.412 4.476 14.458 5.674 8.384 1.99 17.279.968 25.445-1.771 5.965-1.997 11.82-5.063 15.601-10.085Z"/><path fill="#505050" d="m207.836 310.88-23.721 3.691-4.587.715c-3.078-8.777-2.155-18.776 2.274-28.983.645.278 1.29.563 1.925.854 8.331 3.683 16.245 7.606 24.417 11.746a48.795 48.795 0 0 0-.308 11.977Z"/><path fill="#3A3A3B" d="m184.117 314.573-4.587.715c-3.078-8.778-2.155-18.776 2.274-28.983.645.277 1.29.563 1.925.854 1.458 7.883 1.867 19.798.388 27.414Z"/><path fill="#505050" d="M560.004 302.716c-2.806-2.087-6.709-1.701-10.109-.876-7.228 1.752-13.982 5.032-20.67 8.288-3.658 1.779-7.349 3.582-10.491 6.158 0 0 13.962 22.653 14.378 22.873a72.68 72.68 0 0 0 25.923-26.171 15.127 15.127 0 0 0 2.002-4.803 8.17 8.17 0 0 0-1.033-5.469Z"/><path fill="#EC9D74" d="m350.995 499.711-2.911 14.674-2.988 5.318-15.17-4.164 4.425-2.145a5.585 5.585 0 0 0 2.228-2.658c1.189-3.033 2.897-12.205 2.897-12.205l11.519 1.18Z"/><path fill="#064941" d="M348.012 514.161c1.717.119 1.439 10.334.751 11.074-.688.739-30.345-1.257-32.192-1.885-1.847-.629 1.09-5.108 5.021-6.82 3.932-1.712 11.893-3.508 12.761-3.141.867.367 3.378 1.806 4.87 2.19 3.408.883 7.934-1.478 8.789-1.418Z"/><path fill="#EC9D74" d="m421.105 480.765 13.904 5.517 4.692 3.901-6.84 14.166-1.309-4.739a5.593 5.593 0 0 0-2.21-2.673c-2.768-1.72-11.48-5.056-11.48-5.056l3.243-11.116Z"/><path fill="#064941" d="M434.777 486.312c.428-1.667 10.424.452 11.029 1.268.605.816-6.725 29.615-7.677 31.319-.952 1.703-4.826-1.996-5.796-6.171-.97-4.176-1.299-12.332-.781-13.118.518-.786 2.387-2.993 3.035-4.393 1.48-3.196-.024-8.075.19-8.905Z"/><path fill="#EC9D74" d="m578.001 483.825 1.055 14.921-1.483 5.92-15.731-.025 3.704-3.234a5.587 5.587 0 0 0 1.45-3.15c.351-3.24-.418-12.537-.418-12.537l11.423-1.895Z"/><path fill="#064941" d="M578.926 498.55c1.69-.337 4.111 9.59 3.638 10.489-.473.899-29.603 6.776-31.551 6.656-1.949-.121-.295-5.215 3.048-7.899 3.343-2.683 10.551-6.515 11.484-6.388.933.126 3.732.853 5.275.831 3.521-.054 7.266-3.522 8.106-3.689Z"/><path fill="#EC9D74" d="m634.129 475.786 5.52 13.903.375 6.09-15.001 4.737 2.552-4.203a5.594 5.594 0 0 0 .429-3.441c-.646-3.194-4.192-11.825-4.192-11.825l10.317-5.261Z"/><path fill="#064941" d="M639.464 489.54c1.507-.832 6.82 7.897 6.642 8.897-.178 1-26.166 15.416-28.059 15.892-1.893.476-1.858-4.88.516-8.45 2.375-3.57 8.084-9.403 9.01-9.565.925-.162 3.816-.312 5.279-.804 3.342-1.116 5.862-5.556 6.612-5.97Z"/><path fill="#096156" d="M556.723 381.173a409.597 409.597 0 0 0 6.55 113.091h18.358l-2.998-101.723 42.091 100.168 19.385-9.77-41.152-115.458-42.234 13.692Z"/><path fill="#1A1A1A" d="m598.951 367.48-39.792 12.901a75.264 75.264 0 0 0-2.591 2.845c-.22 2.883-.408 5.768-.563 8.656 7.515.076 15.06-1.845 22.393-3.792 5.407-1.435 10.87-2.892 15.806-5.523 3.055-1.627 5.957-3.808 7.718-6.753l-2.971-8.334Z"/><path fill="#1F161C" d="M378.898 319.217a12.972 12.972 0 0 1-4.395-8.235c-.093-.787.023-1.797.776-2.051.329-.081.674-.063.993.051 1.147.309 2.234.81 3.215 1.481a9.028 9.028 0 0 1-.111-4.343 3.858 3.858 0 0 1 1.323-2.356c1.064-.77 2.596-.537 3.695.174a11.475 11.475 0 0 1 2.679 2.855c.258.386.593.716.982.97.304.154.628.263.963.325 3.02.695 6.131 1.201 8.884 2.632 2.753 1.432 5.13 4.026 5.318 7.117 1.542-.254 3.424-.38 4.359.876a3.55 3.55 0 0 1 .573 1.635c.575 4.039-1.424 7.998-3.811 11.304a89.99 89.99 0 0 1-6.816 8.034 57.181 57.181 0 0 1-15.782-14.929 20.017 20.017 0 0 1-2.845-5.54Z"/><path fill="#000" d="M397.522 339.685a90.158 90.158 0 0 0 6.815-8.035 23.044 23.044 0 0 0 3.183-5.888 13.352 13.352 0 0 0-1.784-1.458c-5.561-3.725-12.774-3.873-18.857-6.669-4.417-2.028-8.071-5.37-11.623-8.69-.73.267-.845 1.257-.755 2.036a12.967 12.967 0 0 0 4.395 8.235 20.02 20.02 0 0 0 2.843 5.539 57.203 57.203 0 0 0 15.783 14.93Z"/><path fill="#096156" d="M138.301 354.505a2348.913 2348.913 0 0 0-33.979 151.684s20.499.406 21.616-.837c5.799-28.751 12.348-57.413 21.666-85.224 3.337-9.955 7.312-28.338 11.47-27.575 3.012.553 3.782 17.78 3.123 27.026a941.829 941.829 0 0 0-2.223 85.326l18.037-3.342 4.788-145.141-44.498-1.917Z"/><path fill="#1A1A1A" d="M136.158 362.921a54.126 54.126 0 0 0 46.432-1.024l.211-5.477-44.498-1.915c-.729 2.802-1.428 5.61-2.145 8.416Z"/><path fill="#096156" d="m377.382 414.43-3.674 24.664-8.301 4.805-6.99 4.052-6.494 62.617-19.833-2.235c-1.252-14.03-1.384-29.372-2.635-43.402-1.053-11.816-2.056-24.099 2.105-35.209a28.172 28.172 0 0 1 6.819-10.773 24.967 24.967 0 0 1 9.115-5.332 41.91 41.91 0 0 1 13.275-2.025l16.613 2.838Z"/><path fill="#1A1A1A" d="m377.379 414.429-3.673 24.664-8.301 4.806c-.695-5.67-2.252-17.148-3.783-19.145-1.847-2.413-11.359-7.12-14.129-11.141a41.91 41.91 0 0 1 13.275-2.025l16.611 2.841Z"/><path fill="#096156" d="M370.14 416.555c.14 10.211-1.596 20.359-1.844 30.569-.248 10.21 1.154 20.89 6.89 29.339 5.388 7.935 14.105 13.103 23.203 16.142 9.42 3.143 19.26 5.302 29.132 4.245l5.218-12.538-32.486-21.868 2.231-43.82-32.344-2.069Z"/><path fill="#1A1A1A" d="m401.759 432.897.726-14.275-32.347-2.065a156.128 156.128 0 0 1-.83 15.903c.534.208 1.067.415 1.609.601a47.215 47.215 0 0 0 30.842-.164Z"/><path fill="#505050" d="M386.205 348.063a539.988 539.988 0 0 0-32.202-4.71c-1.897 5.176-6.186 9.243-7.867 14.49a2.264 2.264 0 0 0-.056 1.689 2.445 2.445 0 0 0 1.627 1.002c12.153 3.477 24.31 6.957 36.437 10.532l2.061-23.003Z"/><path fill="#3A3A3B" d="M383.421 370.852c.284-.343.561-.691.831-1.045l1.801-20.084a25.039 25.039 0 0 0-1.362-1.918 569.156 569.156 0 0 0-7.334-1.229 33.561 33.561 0 0 0-5.927 6.695c-2.573 3.566-5.092 7.406-5.625 11.772-.027.22-.019.448-.032.67a3628.204 3628.204 0 0 1 17.648 5.139Z"/><path fill="#505050" d="M552.936 296.287c-5.142 4.936-5.631 12.875-5.543 20.002.217 17.513 1.896 34.974 3.575 52.406a78.213 78.213 0 0 0 2.315 13.981 61.724 61.724 0 0 0 47.874-13.639s-28.334-67.047-28.371-66.486c-.224-3.349-3.22-5.833-6.236-7.312-3.843-1.891-8.552-2.815-12.35-.832a2.635 2.635 0 0 0-1.264 1.88ZM140.707 291.081a49.372 49.372 0 0 1 41.096-4.773l2.168 70.314-48.91-.538 5.646-65.003Z"/><path fill="#EC9D74" d="M378.511 317.771c-3.023 5.847-6.073 11.759-7.667 18.144-.363 1.456-.633 3.066.055 4.4.841 1.627 2.845 2.298 4.675 2.382 1.831.084 3.68-.256 5.491.039l5.381 12.482 10.974-5.411s-1.797-7.101-1.752-7.603a14.812 14.812 0 0 0 3.166-.407 4.96 4.96 0 0 0 2.664-1.668c.256-.297.405-.671.424-1.063a1.879 1.879 0 0 0-.732-1.307 4.378 4.378 0 0 0-5.051-.762c.138.01-.243-13.431-.243-13.431l-17.385-5.795Z"/><path fill="#EC9D74" d="M395.66 340.547a.25.25 0 0 1-.172-.407.253.253 0 0 1 .153-.089 7.53 7.53 0 0 0 3.954-1.525.23.23 0 0 1 .089-.058.25.25 0 0 1 .207.012.259.259 0 0 1 .127.165.252.252 0 0 1-.121.274 8.013 8.013 0 0 1-4.217 1.627l-.02.001Z"/><path fill="#505050" d="M404.791 392.348c-.527 9.641-.824 19.292-.963 28.804l-50.193-5.709a723.13 723.13 0 0 0 2.602-9.51c1.072-3.992 2.175-8.043 3.356-12.064 5.322-18.2 12.332-36.023 27.077-47.123 2.641-1.986 6.712-1.391 9.621.187 2.929 1.589 4.637 4.755 5.809 7.884 4.427 11.834 3.384 24.911 2.691 37.531Z"/><path fill="#EC9D74" d="M534.964 270.724c-.736 5.824-1.473 11.657-1.776 17.518-.082 1.599-.063 3.386 1.037 4.548 1.055 1.11 2.783 1.266 4.289 1.001 1.506-.266 2.949-.873 4.472-1.033a84.89 84.89 0 0 0 3.979 9.234l1.679 2.502 9.73-7.303s-3.1-7.026-3.122-8.065c1.091-.144 2.278-.336 3.01-1.157.409-.52.688-1.13.813-1.779.329-1.285.47-2.808-.42-3.793a3.049 3.049 0 0 0-1.255-.787c-1.844-.655-4.079.03-5.764.87a24.137 24.137 0 0 1-2.628-11.419s-.396 2.085-.973 2.202c-2.44.495-2.719-3.797-4.51-5.527.321 1.18.516 2.391.582 3.612.072.445-.027.9-.276 1.276a1.27 1.27 0 0 1-1.505.188 3.558 3.558 0 0 1-1.16-1.133c-1.166-1.564-2.112-4.518-4.035-4.179-.957.166-1.92 1.283-2.167 3.224Z"/><path fill="#EC9D74" d="M553.152 287.008a.258.258 0 0 1-.153-.058.26.26 0 0 1-.084-.141.26.26 0 0 1 .02-.162.258.258 0 0 1 .116-.115 7.274 7.274 0 0 0 2.941-2.384.25.25 0 0 1 .331-.034.248.248 0 0 1 .072.324 7.785 7.785 0 0 1-3.14 2.548.248.248 0 0 1-.103.022Z"/><path fill="#3A3A3B" d="M148.476 287.225c3.123 5.381 9.42 8.442 15.628 9.555 3.765.674 7.841.751 11.199-1.08 3.359-1.831 5.631-6.046 4.227-9.603a6.363 6.363 0 0 0-.313-.573 49.648 49.648 0 0 0-30.741 1.701ZM183.055 326.868c-.372.197-.743.4-1.106.607-3.923 2.232-7.789 4.685-12.122 5.953-4.333 1.268-9.318 1.189-13.009-1.41a30.219 30.219 0 0 1-3.655-3.362 40.258 40.258 0 0 0-8.223-6.239c-1.685-.968-3.573-1.837-5.501-1.595a5.448 5.448 0 0 0-1.345.36l-1.646 18.981a18.775 18.775 0 0 0 10.86 9.308c6.298 2.111 13.249 1.284 19.588-.697a58.437 58.437 0 0 0 16.58-8.333l-.421-13.573ZM399.063 363.634l-.04.714a1.44 1.44 0 0 0 .04-.714ZM399.022 364.347c-.407 7.656-.992 15.539-4.637 22.261-3.544 6.504-9.72 11.309-16.512 14.288-6.791 2.979-14.198 4.26-21.566 5.024-.02 0-.05.01-.07.01 1.073-3.991 2.175-8.043 3.356-12.064.646-.218 1.301-.438 1.94-.655 14.169-4.817 27.176-13.623 35.815-25.846a11.154 11.154 0 0 0 1.674-3.018Z"/><path fill="#493B46" d="M398.242 312.929a2.798 2.798 0 0 0 .483-1.727c-.269-.17-.543-.337-.824-.482a21.647 21.647 0 0 0-4.839-1.71 4.719 4.719 0 0 0-.408 2.437c.108.656.389 1.272.813 1.784a2.837 2.837 0 0 0 2.429 1.179c.445-.072.87-.241 1.243-.496a3.834 3.834 0 0 0 1.103-.985Z"/><path fill="#EC9D74" d="M382.51 346.091a25.2 25.2 0 0 0 4.037-1.704 6.637 6.637 0 0 0 2.369-1.873 1.028 1.028 0 0 0 .18-1.117 1.064 1.064 0 0 0-.706-.365 9.167 9.167 0 0 0-4.978.547c-.842.324-1.66.709-2.447 1.152.033.004.063 0 .1.008l1.445 3.352Z"/><path fill="#493B46" d="M543.324 253.426a16.397 16.397 0 0 0 1.024 4.45 9.742 9.742 0 0 0 11.513 5.624 9.719 9.719 0 0 0 4.045-2.225c1-.848 1.7-1.996 1.997-3.272a5.006 5.006 0 0 0-.101-2.168 33.329 33.329 0 0 0-9.768-3.06 20.999 20.999 0 0 0-8.71.651Z"/><path fill="#EC9D74" d="M544.967 297.719c2.341-1.14 4.413-2.801 4.985-5.256.099-.351.109-.721.031-1.077a1.817 1.817 0 0 0-1.869-1.139 4.854 4.854 0 0 0-2.186.844c-.98.59-1.929 1.228-2.853 1.902a86.647 86.647 0 0 0 1.892 4.726Z"/><path fill="#3A3A3B" d="M550.707 366.007c5.136-.915 10.157-3.026 14.975-5.155 5.041-2.231 10.416-4.785 13.085-9.61 1.996-3.606 2.141-7.92 2.113-12.042-.073-10.351-1.189-21.371-7.57-29.524a30.052 30.052 0 0 0-5.428 13.716c-.709 5.532.007 11.622-3.142 16.223-1.443 2.108-3.554 3.647-5.623 5.143-3.241 2.347-6.484 4.693-9.727 7.038.417 4.739.856 9.476 1.317 14.211Z"/><path fill="#FFB163" d="M375.683 299.152a91.669 91.669 0 0 0-13.5-40.57l-17.481 8.802a71.988 71.988 0 0 0-12.653-14.578l11.216-16.071a92.346 92.346 0 0 0-38.233-19.145l-6.146 18.609a71.894 71.894 0 0 0-19.253-1.394l-3.427-19.271a91.681 91.681 0 0 0-40.57 13.5l8.801 17.482a72.111 72.111 0 0 0-14.581 12.651l-16.07-11.217a92.358 92.358 0 0 0-19.142 38.236l18.61 6.145a71.852 71.852 0 0 0-1.393 19.253l-19.275 3.428a91.708 91.708 0 0 0 13.498 40.57l17.487-8.801a71.857 71.857 0 0 0 12.65 14.578l-11.215 16.07a92.282 92.282 0 0 0 38.235 19.145l6.143-18.61a71.87 71.87 0 0 0 19.255 1.395l3.427 19.27a91.73 91.73 0 0 0 40.572-13.499l-8.805-17.482a71.95 71.95 0 0 0 14.578-12.651l16.072 11.217a92.391 92.391 0 0 0 19.145-38.237l-18.607-6.145a72.023 72.023 0 0 0 1.393-19.254l19.269-3.426Zm-79.225 44.96a39.03 39.03 0 0 1-41.817-11.476 39.025 39.025 0 1 1 41.817 11.476Z"/><path fill="#D18A2C" d="M371.333 278.068a91.891 91.891 0 0 0-9.149-19.487l-17.48 8.803a72.024 72.024 0 0 0-12.654-14.578l11.216-16.071a92.362 92.362 0 0 0-38.232-19.146l-6.147 18.609-.062-.011c8.27 11.843 16.675 25.521 21.893 38.436 12.055 29.835 6.815 65.984-31.951 105.445l3.301 18.562a91.734 91.734 0 0 0 40.572-13.499l-8.805-17.484a71.942 71.942 0 0 0 14.578-12.65l16.071 11.216a92.375 92.375 0 0 0 19.145-38.236l-18.607-6.145a72.023 72.023 0 0 0 1.393-19.254l19.271-3.426a92.022 92.022 0 0 0-4.353-21.084Z"/><path fill="#064941" d="M490.449 203.784a62.135 62.135 0 0 0-9.15-27.497l-11.848 5.966a48.8 48.8 0 0 0-8.575-9.882l7.601-10.892a62.584 62.584 0 0 0-25.912-12.974l-4.166 12.612a48.727 48.727 0 0 0-13.048-.944l-2.323-13.063a62.116 62.116 0 0 0-27.498 9.148l5.966 11.848a48.907 48.907 0 0 0-9.885 8.576l-10.887-7.602a62.55 62.55 0 0 0-12.973 25.916l12.613 4.165a48.743 48.743 0 0 0-.947 13.05l-13.063 2.322a62.169 62.169 0 0 0 9.15 27.499l11.851-5.967a48.747 48.747 0 0 0 8.572 9.88l-7.601 10.892a62.571 62.571 0 0 0 25.914 12.976l4.163-12.613a48.667 48.667 0 0 0 13.051.944l2.323 13.063a62.173 62.173 0 0 0 27.497-9.15l-5.965-11.849a48.778 48.778 0 0 0 9.878-8.575l10.893 7.602a62.611 62.611 0 0 0 12.975-25.914l-12.61-4.165a48.86 48.86 0 0 0 .943-13.049l13.061-2.323Zm-53.695 30.47a26.452 26.452 0 0 1-34.597-21.801 26.447 26.447 0 0 1 13.156-26.281 26.453 26.453 0 0 1 38.186 14.633 26.453 26.453 0 0 1-16.745 33.452v-.003Z"/><path fill="#096156" d="M476.446 219.156a48.86 48.86 0 0 0 .944-13.049l13.06-2.323a62.135 62.135 0 0 0-9.15-27.497l-11.848 5.966a48.8 48.8 0 0 0-8.575-9.882l7.601-10.892a62.584 62.584 0 0 0-25.912-12.974l-1.66 5.026c7.445 14.244 15.48 31.897 17.491 44.969 3.128 20.334-12.224 46.206-26.649 61.292l2.03 11.415a62.16 62.16 0 0 0 27.498-9.15l-5.965-11.849a48.805 48.805 0 0 0 9.878-8.575l10.892 7.602a62.587 62.587 0 0 0 12.975-25.914l-12.61-4.165Z"/><path fill="#FFB163" d="M546.906 329.937a62.169 62.169 0 0 0-9.15-27.497l-11.847 5.966a48.72 48.72 0 0 0-8.577-9.881l7.603-10.893a62.597 62.597 0 0 0-25.914-12.974l-4.164 12.613a48.768 48.768 0 0 0-13.048-.945l-2.325-13.062a62.081 62.081 0 0 0-27.496 9.15l5.965 11.849a48.902 48.902 0 0 0-9.885 8.575l-10.89-7.603a62.548 62.548 0 0 0-12.972 25.913l12.612 4.166a48.82 48.82 0 0 0-.945 13.049l-13.06 2.323a62.204 62.204 0 0 0 9.148 27.498l11.853-5.966a48.78 48.78 0 0 0 8.572 9.881l-7.602 10.891a62.553 62.553 0 0 0 25.914 12.976l4.164-12.613a48.667 48.667 0 0 0 13.051.944l2.323 13.063a62.205 62.205 0 0 0 27.498-9.149l-5.968-11.846a48.724 48.724 0 0 0 9.878-8.576l10.894 7.602a62.587 62.587 0 0 0 12.975-25.914l-12.611-4.164a48.91 48.91 0 0 0 .944-13.05l13.06-2.326Zm-53.695 30.47a26.448 26.448 0 0 1-28.342-7.776 26.444 26.444 0 0 1 6.902-40.305 26.448 26.448 0 0 1 38.184 14.632 26.451 26.451 0 0 1-16.744 33.452v-.003Z"/><path fill="#D18A2C" d="m545.509 349.474-12.611-4.164a48.913 48.913 0 0 0 .944-13.051l13.06-2.322a62.169 62.169 0 0 0-9.15-27.497l-11.847 5.966a48.752 48.752 0 0 0-8.577-9.882l7.603-10.892a62.611 62.611 0 0 0-25.914-12.975l-2.075 6.285c6.471 11.617 13.675 26.385 15.733 37.7 3.71 20.41-4.719 44.576-27.978 65.749a48.662 48.662 0 0 0 3.211-.094l2.322 13.063a62.205 62.205 0 0 0 27.499-9.149l-5.967-11.846a48.756 48.756 0 0 0 9.878-8.576l10.894 7.602a62.599 62.599 0 0 0 12.975-25.917Z"/><path fill="#1F161C" d="M177.609 253.429a24.28 24.28 0 0 0 3.378-9.084 6.567 6.567 0 0 0-.057-2.987 2.73 2.73 0 0 0-2.072-1.962 3.648 3.648 0 0 0-1.828.35 15.517 15.517 0 0 0-2.973 1.594c1.244-.745 1.451-2.628.638-3.83a4.345 4.345 0 0 0-3.809-1.672 10.538 10.538 0 0 0-4.119 1.282c-5.443 2.68-10.342 6.727-13.287 12.032a5.238 5.238 0 0 0-2.045-.508 5.247 5.247 0 0 0-2.078.341 2.422 2.422 0 0 0-1.152.814 2.916 2.916 0 0 0-.406 1.338 24.8 24.8 0 0 0 7.983 21.24c8.829-5.68 17.358-11.777 21.827-18.948Z"/><path fill="#493B46" d="M175.255 240.916c.022-.111.038-.223.048-.335-.425.236-.844.483-1.247.759a2.623 2.623 0 0 0 1.064-2.753 5.289 5.289 0 0 0-.757-1.425 4.483 4.483 0 0 0-3.479-1.324 10.54 10.54 0 0 0-4.119 1.283 36.047 36.047 0 0 0-4.092 2.359c-.016.487.057.972.215 1.432.447 1.198 1.509 2.039 2.54 2.79a6.556 6.556 0 0 0 2.083 1.152 5.187 5.187 0 0 0 2.73-.12 9.904 9.904 0 0 0 3.31-1.636 4.416 4.416 0 0 0 1.704-2.182Z"/><path fill="#000" d="M163.258 253.323c-5.134 1.012-10.511 1.346-15.611.329a24.831 24.831 0 0 0 8.133 18.725c8.83-5.68 17.359-11.777 21.828-18.948a24.107 24.107 0 0 0 2.258-4.724c-5.51 1.652-10.97 3.507-16.608 4.618Z"/><path fill="#EC9D74" d="M176.011 249.557a146.993 146.993 0 0 1 8.672 17.419c.337.662.509 1.396.5 2.139-.118 1.259-1.21 2.18-2.258 2.887a30.305 30.305 0 0 1-6.215 3.214 2.588 2.588 0 0 0-1.13.657 2.447 2.447 0 0 0-.397.868c-.948 3.091-1.778 6.217-2.767 9.953 1.376 1.068 3.571 3.224 2.732 4.747-2.965 5.386-11.982-.931-17.404-3.83 0 0 1.071-11.023.518-11.693a4.771 4.771 0 0 1-4.538-1.462 2.736 2.736 0 0 1-.629-1.086 2.95 2.95 0 0 1 .88-2.627 5.958 5.958 0 0 1 4.919-1.896s3.501-14.492 4.335-15.094c4.663-1.763 9.364-3.427 12.782-4.196Z"/><path fill="#EC9D74" d="M175.456 276.083a26.284 26.284 0 0 0-7.121.673.7.7 0 0 0-.274.088.693.693 0 0 0-.218.189c-.158.292.137.618.41.805a10.282 10.282 0 0 0 6.119 1.66c.264-.93.535-1.849.81-2.757a3.29 3.29 0 0 1 .274-.658ZM142.645 332.714a49.907 49.907 0 0 0 6.678 10.803c.879 1.083 1.868 2.176 3.191 2.622a6.967 6.967 0 0 0 4.072-.194c3.407-.963 6.559-2.647 9.635-4.401 13.349-7.613 25.758-16.757 38.94-24.69 4.392-1.978 8.784-3.955 13.178-5.931 1.721-.775 3.549-1.64 4.515-3.264 1.205-2.014.728-4.567.218-6.859-.15-.661-.42-1.448-1.086-1.581a1.772 1.772 0 0 0-.9.142 53.112 53.112 0 0 0-10.296 4.717c.957-1.724 2.611-4.346.868-5.269-2.08-1.103-4.981 4.88-6.729 8.436-15.384 6.313-31.26 13.992-45.948 21.791l-3.066-4.755-13.27 8.433Z"/><path fill="#EC9D74" d="M144.77 336.812c3.241-.876 12.457-3.843 13.148-9.422l-2.006-3.109-13.264 8.434a49.916 49.916 0 0 0 2.122 4.097ZM383.385 384.294a7.022 7.022 0 0 1-3.019 4.3 14.013 14.013 0 0 1-2.999 1.608c-.99.39-2.005.715-3.038.973-8.429 2.175-17.326 1.549-25.895.04-5.61-.973-10.723-3.802-16.065-5.739-1.787-.645-2.115-.109-5.719-.645-2.761-.417-7.537-3.168-5.958-5.481 2.036-2.998 5.431-.298 9.016.278-1.34-1.529-3.346-4.14-1.619-5.193 1.698-1.043 3.813 3.436 6.643 4.518 1.341.506 4.478.208 5.908.238 10.038.149 20.324.268 29.946-2.323a50.185 50.185 0 0 0 5.133-1.678c3.396 1.39 4.926 2.482 6.077 3.941a6.709 6.709 0 0 1 1.589 5.163Z"/><path fill="#EC9D74" d="M383.386 384.295a7.025 7.025 0 0 1-3.018 4.299 14.062 14.062 0 0 1-2.999 1.609 17.683 17.683 0 0 1-5.5-7.219 17.451 17.451 0 0 1-1.282-6.116 50.283 50.283 0 0 0 5.134-1.678c3.396 1.39 4.925 2.482 6.076 3.942a6.699 6.699 0 0 1 1.589 5.163Z"/><path fill="#505050" d="M370.297 373.111c3.24-4.175 7.425-7.508 11.728-10.574 3.572-2.54 7.487-5.005 11.862-5.23 2.512-.13 5.315.706 6.54 2.903.885 1.588.761 3.542.385 5.318-1.074 5.068-3.942 9.556-7.036 13.709a159.55 159.55 0 0 1-11.449 13.533l-12.03-19.659Z"/><path fill="#EC9D74" d="m553.191 341.476-38.799-2.171c-2.146-.12-4.505-.179-6.198 1.144a1.083 1.083 0 0 0-.448.6c-.106.554.534.935 1.068 1.114 1.245.416 2.526.716 3.826.897-2.878 1.072-5.787 2.161-8.291 3.93-2.505 1.77-7.333 5.181-5.158 7.342 4.293 4.267 11.891-2.252 18.191-3.562 8.509 1.293 17.018 2.583 25.527 3.871 4.772.723 9.691 1.439 14.378.289a18.67 18.67 0 0 0 10.77-7.407c1.111-1.598 1.989-3.49 1.783-5.424a6.388 6.388 0 0 0-3.598-4.821 10.29 10.29 0 0 0-6.132-.743 9.079 9.079 0 0 0-6.919 4.941Z"/><path fill="#EC9D74" d="M569.835 342.1a6.388 6.388 0 0 0-3.598-4.821 10.29 10.29 0 0 0-6.132-.743 9.074 9.074 0 0 0-6.917 4.939c-.438-.024-.876-.05-1.314-.073.419 1.406.911 2.79 1.475 4.144 1.032 2.327 2.75 4.553 5.193 5.269a10.95 10.95 0 0 0 2.827.332 21.652 21.652 0 0 0 3.527-.157 18.25 18.25 0 0 0 3.159-3.467c1.108-1.597 1.987-3.489 1.78-5.423Z"/><path fill="#505050" d="M565.36 298.865c-3.4.818-5.607 4.061-7.15 7.2-3.284 6.673-5.096 13.96-6.882 21.18-.98 3.947-1.96 7.936-1.997 11.999 0 0 26.34 3.796 26.774 3.618a72.669 72.669 0 0 0-3.481-36.671 15.084 15.084 0 0 0-2.406-4.612 8.165 8.165 0 0 0-4.858-2.714ZM159.053 326.065l-19.24 8.238c-3.081-11.238-6.186-22.979-3.893-34.405.736-3.668 2.263-7.524 5.416-9.256a7.156 7.156 0 0 1 5.005 2.795 21.223 21.223 0 0 1 2.86 5.146c2.521 5.733 10.386 23.628 9.852 27.482Z"/><path fill="#EC9D74" d="M155.834 271.474a2.16 2.16 0 0 0 1.565 1.694.25.25 0 0 0 .259-.357.25.25 0 0 0-.128-.122 1.672 1.672 0 0 1-1.214-1.347c-.058-.312-.537-.18-.478.132h-.004ZM534.661 277.833c-.83.119-5.061 2.645-4.715 3.144.345.498 4.293.268 4.715 0 .421-.269.805-3.259 0-3.144Z"/><path fill="url(#c)" d="M2.644 215.416h737v352h-737z" transform="rotate(.403 2.644 215.416)"/><defs><linearGradient id="b" x1="369.958" x2="387.328" y1="55.356" y2="518.115" gradientUnits="userSpaceOnUse"><stop stop-opacity=".5"/><stop offset="1" stop-opacity="0"/></linearGradient><linearGradient id="c" x1="371.144" x2="371.144" y1="567.416" y2="215.416" gradientUnits="userSpaceOnUse"><stop stop-color="#1A1A1A"/><stop offset="1" stop-color="#1A1A1A" stop-opacity="0"/></linearGradient><filter id="a" width="692.894" height="568.118" x="31.447" y=".66" color-interpolation-filters="sRGB" filterUnits="userSpaceOnUse"><feFlood flood-opacity="0" result="BackgroundImageFix"/><feColorMatrix in="SourceAlpha" result="hardAlpha" values="0 0 0 0 0 0 0 0 0 0 0 0 0 0 0 0 0 0 127 0"/><feOffset/><feGaussianBlur stdDeviation="25"/><feComposite in2="hardAlpha" operator="out"/><feColorMatrix values="0 0 0 0 1 0 0 0 0 1 0 0 0 0 1 0 0 0 0.1 0"/><feBlend in2="BackgroundImageFix" result="effect1_dropShadow_1_331"/><feBlend in="SourceGraphic" in2="effect1_dropShadow_1_331" result="shape"/></filter></defs></svg>