<svg xmlns="http://www.w3.org/2000/svg" fill="none" viewBox="0 0 50 50"><path fill="#92BEBA" d="M35.938 37.5H14.061c-.859 0-1.562.703-1.562 1.563 0 .859.703 1.562 1.563 1.562h3.124v3.125a4.681 4.681 0 0 0 4.688 4.688h6.25a4.681 4.681 0 0 0 4.688-4.688v-3.125h3.124c.86 0 1.563-.703 1.563-1.563 0-.859-.703-1.562-1.563-1.562ZM46.875 17.188h-1.563c-.859 0-1.562.703-1.562 1.562 0 .86.703 1.563 1.563 1.563h1.562c.86 0 1.563-.704 1.563-1.563 0-.86-.704-1.563-1.563-1.563ZM43.75 12.5c.234 0 .469-.047.703-.172l3.125-1.562a1.58 1.58 0 0 0 .703-2.094 1.561 1.561 0 0 0-2.093-.703L43.062 9.53a1.58 1.58 0 0 0-.703 2.094c.282.547.828.86 1.407.86l-.016.015ZM47.578 26.734l-3.125-1.562a1.552 1.552 0 0 0-2.094.703 1.552 1.552 0 0 0 .703 2.094l3.126 1.562c.218.11.468.172.703.172.578 0 1.125-.312 1.406-.86a1.552 1.552 0 0 0-.703-2.093l-.016-.016ZM6.953 9.547 3.828 7.984a1.544 1.544 0 0 0-2.094.703 1.552 1.552 0 0 0 .704 2.094l3.124 1.563c.22.11.47.172.704.172.578 0 1.125-.313 1.406-.86a1.552 1.552 0 0 0-.703-2.094l-.016-.015ZM5.547 25.172l-3.125 1.562a1.58 1.58 0 0 0-.703 2.094c.281.547.828.86 1.406.86.234 0 .469-.047.703-.172l3.125-1.563a1.58 1.58 0 0 0 .703-2.094 1.58 1.58 0 0 0-2.093-.703l-.016.016ZM3.125 20.313h1.563c.859 0 1.562-.704 1.562-1.563 0-.86-.703-1.563-1.563-1.563H3.125c-.86 0-1.563.704-1.563 1.563 0 .86.704 1.563 1.563 1.563ZM25 10.938a7.815 7.815 0 0 0-7.813 7.812c0 4.313 3.5 7.813 7.813 7.813s7.813-3.5 7.813-7.813-3.5-7.813-7.813-7.813Zm5.266 6.312-5.141 5.188c-.297.296-.656.437-1.11.468-.406 0-.812-.156-1.109-.453l-3.156-3.156a1.556 1.556 0 0 1 0-2.203c.61-.61 1.594-.61 2.203 0L24 19.14l4.031-4.063a1.542 1.542 0 0 1 2.203 0c.61.61.625 1.594 0 2.203l.032-.031Z"/><path fill="#92BEBA" d="M36.453 5.937a17.29 17.29 0 0 0-13.422-4.265c-7.843.875-14.187 7.187-15.11 15.016-.624 5.375 1.22 10.625 5.079 14.375.906.875 1.5 2.046 1.719 3.312H35.25c.219-1.266.813-2.438 1.719-3.313a17.037 17.037 0 0 0 5.203-12.312c0-4.672-2.094-9.547-5.734-12.813h.015ZM25 29.687c-6.031 0-10.938-4.906-10.938-10.937S18.97 7.812 25 7.812c6.031 0 10.938 4.907 10.938 10.938 0 6.031-4.907 10.938-10.938 10.938Z"/></svg>