<svg xmlns="http://www.w3.org/2000/svg" width="600" height="597" fill="none" viewBox="0 0 600 597"><mask id="a" width="601" height="597" x="0" y="0" maskUnits="userSpaceOnUse" style="mask-type:alpha"><path fill="#D9D9D9" fill-rule="evenodd" d="M600 144.763c0 79.951-64.813 144.763-144.763 144.763-79.951 0-144.763-64.812-144.763-144.763C310.474 64.813 375.286 0 455.237 0 535.187 0 600 64.813 600 144.763ZM144.763 289.526c79.951 0 144.763-64.812 144.763-144.763C289.526 64.813 224.714 0 144.763 0 64.813 0 0 64.813 0 144.763c0 79.951 64.813 144.763 144.763 144.763Zm.001 306.733c79.95 0 144.763-64.812 144.763-144.763 0-79.95-64.813-144.763-144.763-144.763S0 371.546 0 451.496c0 79.951 64.813 144.763 144.764 144.763Zm310.473 0c79.951 0 144.763-64.812 144.763-144.763 0-79.95-64.812-144.763-144.763-144.763-79.95 0-144.763 64.813-144.763 144.763 0 79.951 64.813 144.763 144.763 144.763Z" clip-rule="evenodd"/></mask><g fill-opacity=".65" mask="url(#a)" opacity=".5"><ellipse cx="145.49" cy="141.335" fill="url(#b)" rx="145.199" ry="148.714"/><ellipse cx="144.447" cy="456.441" fill="url(#c)" rx="144.149" ry="148.714"/><ellipse cx="453.596" cy="141.327" fill="url(#d)" rx="144.149" ry="148.714"/><ellipse cx="454.374" cy="455.369" fill="url(#e)" rx="144.919" ry="149.777"/></g><defs><linearGradient id="b" x1="217.679" x2="114.09" y1="291.591" y2="44.589" gradientUnits="userSpaceOnUse"><stop offset=".048" stop-color="#1E9387"/><stop offset="1" stop-color="#092D29" stop-opacity="0"/></linearGradient><linearGradient id="c" x1="224.316" x2="54.875" y1="330.77" y2="573.548" gradientUnits="userSpaceOnUse"><stop stop-color="#1E9387"/><stop offset="1" stop-color="#092D29" stop-opacity="0"/></linearGradient><linearGradient id="d" x1="328.967" x2="587.356" y1="221.257" y2="88.609" gradientUnits="userSpaceOnUse"><stop stop-color="#1E9387"/><stop offset="1" stop-color="#092D29" stop-opacity="0"/></linearGradient><linearGradient id="e" x1="386.698" x2="511.576" y1="324.583" y2="596.035" gradientUnits="userSpaceOnUse"><stop stop-color="#1E9387"/><stop offset="1" stop-color="#092D29" stop-opacity="0"/></linearGradient></defs></svg>